<?xml version="1.0" standalone="no"?>
<!DOCTYPE svg PUBLIC "-//W3C//DTD SVG 20010904//EN"
 "http://www.w3.org/TR/2001/REC-SVG-20010904/DTD/svg10.dtd">
<svg version="1.0" xmlns="http://www.w3.org/2000/svg"
 width="700.000000pt" height="700.000000pt" viewBox="0 0 700.000000 700.000000"
 preserveAspectRatio="xMidYMid meet">
<metadata>
Created by potrace 1.11, written by Peter Selinger 2001-2013
</metadata>
<g transform="translate(0.000000,700.000000) scale(0.100000,-0.100000)"
fill="#000000" stroke="none">
<path d="M3161 6939 c-794 -65 -1518 -396 -2089 -953 -633 -617 -993 -1415
-1041 -2310 -47 -855 223 -1683 772 -2371 110 -137 398 -421 537 -529 523
-404 1079 -631 1735 -708 139 -16 558 -16 690 1 763 94 1388 381 1945 894
l125 115 5 -481 5 -482 480 0 480 0 3 3388 2 3387 -482 -2 -483 -3 -3 -483 -2
-483 -123 112 c-559 514 -1169 799 -1912 895 -142 18 -497 25 -644 13z m459
-989 c223 -20 439 -66 625 -136 861 -319 1458 -1078 1586 -2014 17 -122 17
-478 0 -600 -61 -449 -224 -848 -492 -1207 -94 -125 -325 -357 -454 -454 -350
-264 -728 -420 -1165 -480 -138 -19 -468 -17 -610 5 -534 80 -999 312 -1370
685 -197 198 -353 416 -469 655 -193 398 -274 799 -250 1246 46 840 533 1614
1268 2014 411 225 880 325 1331 286z"/>
</g>
</svg>
