<?xml version="1.0" standalone="no"?>
<!DOCTYPE svg PUBLIC "-//W3C//DTD SVG 20010904//EN"
 "http://www.w3.org/TR/2001/REC-SVG-20010904/DTD/svg10.dtd">
<svg version="1.0" xmlns="http://www.w3.org/2000/svg"
 width="1000.000000pt" height="1000.000000pt" viewBox="0 0 1000.000000 1000.000000"
 preserveAspectRatio="xMidYMid meet">
<metadata>
Created by potrace 1.11, written by Peter Selinger 2001-2013
</metadata>
<g transform="translate(0.000000,1000.000000) scale(0.100000,-0.100000)"
fill="#000000" stroke="none">
<path d="M8388 8933 c-9 -21 -23 -87 -33 -148 -9 -60 -28 -141 -42 -180 -35
-94 -36 -136 -3 -152 25 -12 25 -12 36 55 6 38 23 108 37 158 30 103 45 187
41 235 -1 19 -3 42 -3 52 -2 29 -17 19 -33 -20z"/>
<path d="M8245 8263 c-1 -82 -4 -164 -8 -183 -17 -87 -20 -215 -21 -998 l-1
-832 48 0 c26 0 47 3 48 8 1 4 2 36 4 72 3 75 12 142 24 185 5 20 3 45 -6 75
-10 30 -16 108 -18 235 -4 213 -13 427 -20 465 -12 72 -16 159 -15 290 1 80 2
182 1 228 0 45 4 95 10 110 23 58 25 98 21 363 -2 94 -3 96 -29 110 -16 7 -30
15 -33 16 -3 2 -5 -63 -5 -144z"/>
<path d="M9736 7946 c0 -41 -9 -134 -22 -207 -23 -135 -34 -263 -22 -274 14
-14 46 64 51 126 3 36 20 122 37 190 35 137 34 176 -5 215 -13 13 -28 24 -32
24 -4 0 -8 -33 -7 -74z"/>
<path d="M9663 7423 c-7 -2 -13 -12 -13 -21 0 -9 -9 -44 -19 -77 -17 -54 -18
-91 -16 -400 1 -187 6 -374 10 -415 7 -76 104 -475 150 -621 27 -86 26 -82 55
-249 43 -239 35 -219 93 -245 37 -16 54 -19 59 -11 28 42 -15 275 -97 526 -78
238 -87 274 -160 625 -3 17 -8 80 -11 140 -3 61 -12 141 -21 179 -9 38 -16 92
-16 120 1 147 6 224 18 246 14 26 18 67 16 158 -1 53 -10 61 -48 45z"/>
<path d="M5850 6922 c0 -5 3 -12 7 -15 3 -4 18 -42 33 -84 71 -202 203 -559
210 -567 11 -11 39 34 42 65 1 13 -26 95 -60 181 -34 87 -71 192 -83 235 -12
43 -30 94 -41 113 -26 49 -108 102 -108 72z"/>
<path d="M6887 6358 c-40 -54 -82 -135 -135 -263 -61 -145 -70 -197 -48 -262
9 -27 21 -74 27 -106 6 -32 21 -69 33 -85 13 -15 25 -38 28 -52 3 -14 18 -70
32 -125 30 -111 39 -254 18 -292 -14 -25 -56 -40 -118 -42 -39 -2 -36 -78 4
-107 21 -15 42 -1 42 28 0 17 6 19 63 17 68 -2 118 -23 182 -74 55 -45 171
-115 218 -131 22 -8 56 -14 77 -14 24 0 40 -5 43 -14 10 -27 92 -65 170 -79
42 -8 77 -13 77 -11 0 1 -37 30 -82 64 -77 57 -85 61 -122 54 l-39 -6 46 58
c54 69 147 217 183 291 14 28 29 78 34 110 11 65 14 361 5 408 -3 17 -8 39
-10 50 -10 56 -51 166 -86 232 -51 98 -86 144 -176 226 l-31 29 -56 -51 c-48
-44 -96 -66 -96 -45 0 4 20 29 45 55 50 53 59 89 23 89 -204 5 -255 15 -304
61 l-22 20 -25 -33z m252 -214 c-20 -24 -65 -44 -99 -44 -45 0 -36 14 18 29
26 7 56 16 67 21 28 12 29 12 14 -6z"/>
<path d="M6123 6228 c-29 -14 -30 -55 -4 -129 11 -30 46 -130 79 -224 121
-345 242 -634 328 -782 29 -50 67 -125 83 -165 17 -40 49 -104 72 -143 80
-137 146 -281 134 -293 -9 -9 -35 21 -57 67 -13 25 -59 107 -103 181 -45 74
-100 170 -124 212 -23 43 -46 80 -51 83 -6 3 -27 -8 -48 -25 -22 -18 -55 -33
-77 -35 -51 -7 -82 -28 -99 -68 -17 -42 -40 -61 -114 -97 -35 -17 -63 -37 -67
-49 -4 -14 -11 -18 -23 -14 -26 10 -32 24 -32 75 0 51 -10 64 -37 49 -16 -8
-19 -3 -28 37 l-10 46 -33 -34 c-48 -49 -80 -125 -99 -227 -8 -48 -23 -118
-33 -155 l-17 -67 26 18 c14 11 35 29 46 41 29 32 66 48 95 40 22 -5 25 -11
25 -55 0 -44 -4 -54 -32 -81 -18 -18 -33 -41 -33 -53 0 -11 -3 -21 -7 -21 -5
0 -21 -20 -36 -45 -26 -41 -28 -48 -17 -82 15 -45 30 -65 30 -39 0 44 44 158
71 186 16 15 29 37 29 48 0 10 12 25 28 33 15 7 54 35 87 61 33 27 63 48 66
48 4 0 -1 -26 -11 -57 -10 -33 -20 -110 -24 -178 -3 -66 -8 -129 -10 -140 -9
-48 -19 -218 -19 -310 1 -55 1 -192 1 -305 0 -113 1 -235 1 -271 1 -41 -5 -81
-15 -105 -15 -36 -19 -86 -15 -216 1 -45 3 -49 40 -67 l38 -20 12 26 c21 46
32 123 36 263 7 200 17 308 34 375 4 17 9 59 10 94 1 35 12 87 23 115 13 33
21 81 23 136 2 47 10 118 19 159 10 52 14 129 13 250 -2 154 -5 181 -22 216
-19 37 -22 40 -67 40 -26 1 -50 3 -52 6 -3 3 5 18 17 33 l23 28 41 -21 c29
-14 50 -36 72 -73 47 -84 57 -134 43 -220 -7 -40 -15 -100 -18 -132 l-7 -59
76 5 c76 5 78 6 192 78 32 20 37 12 20 -36 -15 -44 -11 -69 23 -164 32 -87 60
-203 76 -313 16 -111 22 -173 42 -417 3 -41 7 -239 8 -440 1 -201 4 -369 8
-375 3 -5 9 -35 13 -65 4 -30 8 -56 10 -58 1 -1 30 5 63 14 l61 17 -4 195 c-4
196 -7 237 -26 367 -5 39 -9 120 -9 180 6 392 5 400 -20 535 -5 25 -7 92 -6
150 3 122 -3 146 -57 220 -37 49 -73 127 -64 136 2 2 20 -11 41 -28 39 -35
120 -162 183 -288 l37 -75 9 60 c4 33 6 96 4 140 -4 98 -28 149 -124 267 -64
79 -149 215 -140 224 2 2 15 -5 29 -15 31 -25 52 -30 54 -13 1 6 2 17 3 23 1
15 81 -82 81 -99 0 -7 18 -45 41 -84 69 -118 100 -187 114 -256 8 -36 12 -69
10 -73 -8 -12 18 -73 52 -121 48 -66 86 -78 150 -47 47 22 79 64 65 82 -5 7
-15 28 -22 47 -18 44 -237 422 -300 515 -56 83 -85 139 -94 180 -4 17 -21 42
-40 57 -21 17 -52 62 -79 115 -264 518 -304 601 -369 753 -11 25 -29 65 -39
89 -33 71 -59 140 -94 246 -18 55 -47 138 -63 185 -17 47 -33 103 -35 125 -5
37 -28 66 -51 64 -6 0 -21 -5 -33 -11z m372 -1356 c13 -7 83 -99 116 -152 17
-27 30 -70 22 -70 -12 0 -96 97 -113 130 -41 80 -91 96 -142 46 -60 -57 -62
-61 -41 -93 9 -15 20 -30 24 -33 3 -3 18 -26 33 -52 40 -69 27 -82 -26 -27
-43 45 -74 115 -70 163 1 22 58 85 87 96 22 8 90 4 110 -8z m183 -265 c21 -22
56 -106 48 -114 -9 -9 -47 24 -60 52 -18 37 -27 85 -17 85 4 0 17 -10 29 -23z
m-124 -152 c10 -14 16 -33 14 -41 -8 -38 -118 76 -118 121 0 12 88 -55 104
-80z m99 -135 c32 -37 86 -146 69 -138 -49 23 -82 53 -82 74 0 14 -11 35 -23
47 -28 26 -49 62 -40 70 10 10 39 -11 76 -53z"/>
<path d="M8190 6213 c-6 -92 -15 -168 -26 -208 -8 -27 -32 -117 -54 -200 -21
-82 -58 -211 -80 -285 -23 -74 -57 -189 -75 -256 -40 -142 -97 -301 -161 -445
-57 -127 -64 -149 -69 -221 l-5 -58 26 10 c78 30 171 197 234 420 23 80 48
165 57 190 28 85 172 597 198 706 15 60 38 149 51 198 30 107 25 129 -33 145
-45 13 -63 14 -63 4z"/>
<path d="M9855 5357 c-64 -77 -215 -246 -285 -318 -123 -127 -169 -178 -241
-269 -84 -105 -248 -278 -560 -589 -209 -209 -229 -237 -229 -308 0 -35 56
-16 109 36 26 25 67 64 92 86 59 53 424 426 480 491 24 28 67 77 94 109 76 89
139 158 260 283 248 255 289 300 342 371 60 80 61 75 -8 111 -36 19 -36 19
-54 -3z"/>
<path d="M6743 5312 c-26 -4 -28 -11 -10 -35 30 -42 110 -20 87 24 -10 18 -20
19 -77 11z"/>
<path d="M7597 5118 c8 -24 23 -51 32 -60 25 -27 163 -106 176 -102 6 3 17 21
25 41 l13 37 -57 53 c-58 54 -102 73 -168 73 l-38 0 17 -42z"/>
<path d="M6800 5026 c0 -7 -11 -29 -24 -48 l-24 -35 47 -50 c25 -28 60 -59 76
-70 65 -44 191 -106 278 -137 51 -19 127 -50 170 -71 43 -20 79 -36 81 -34 1
2 8 23 15 46 6 24 21 48 33 54 19 10 20 9 14 -22 -13 -69 -12 -72 32 -106 49
-37 93 -48 156 -39 l44 7 -24 72 c-30 89 -50 107 -118 107 -41 0 -77 11 -181
58 -185 84 -302 146 -370 199 -33 25 -78 53 -100 64 -48 22 -105 25 -105 5z"/>
<path d="M5392 4877 c-88 -89 -91 -93 -88 -132 2 -22 4 -50 5 -62 1 -26 28
-21 28 5 0 94 2 102 28 102 29 0 29 -1 12 -60 -8 -25 -12 -62 -10 -82 3 -24
-1 -46 -11 -60 -9 -12 -16 -41 -16 -64 0 -23 -7 -60 -15 -83 -8 -24 -17 -72
-21 -109 -3 -41 -15 -84 -32 -116 -33 -67 -34 -128 -1 -191 36 -71 47 -75 110
-35 30 19 76 51 102 71 32 25 64 40 93 45 39 6 52 14 102 71 31 36 70 79 85
96 79 85 155 237 119 237 -18 0 -75 -67 -113 -132 -74 -126 -171 -211 -289
-253 -24 -8 -45 -14 -47 -12 -8 9 38 48 68 58 45 15 92 51 156 119 52 54 59
72 47 117 -5 19 -11 14 -48 -40 -40 -60 -131 -140 -151 -134 -5 2 -11 15 -13
30 -3 27 -74 96 -80 78 -2 -5 2 -27 7 -49 8 -27 19 -43 38 -51 l27 -12 -30
-24 c-16 -13 -43 -29 -61 -35 -38 -13 -38 -38 1 -54 l28 -11 -46 -34 c-45 -32
-47 -32 -42 -9 3 12 8 68 11 122 3 55 17 150 31 210 14 61 27 122 30 136 2 14
7 36 10 50 3 13 8 47 10 74 6 58 13 69 54 86 17 7 33 24 39 41 5 16 8 29 6 29
-2 0 5 25 15 55 10 30 16 55 13 55 -3 0 -20 -10 -37 -23 -56 -42 -56 -42 -40
14 9 28 14 53 12 55 -2 2 -45 -38 -96 -89z"/>
<path d="M7966 4836 c-9 -30 -16 -57 -16 -61 0 -6 41 -57 117 -145 12 -14 31
-36 43 -50 110 -128 313 -337 408 -419 l61 -53 66 23 c36 13 65 26 65 29 0 3
-22 20 -48 37 -59 41 -450 430 -546 543 -39 47 -81 96 -93 110 -13 14 -23 28
-23 32 0 5 -4 8 -9 8 -5 0 -17 -24 -25 -54z"/>
<path d="M6925 4684 c25 -57 47 -84 70 -84 12 0 81 68 74 73 -3 2 -84 35 -157
64 -8 4 -3 -16 13 -53z"/>
<path d="M7161 4578 c64 -165 204 -400 329 -552 87 -107 320 -338 320 -319 0
4 18 28 40 51 22 24 40 47 40 52 0 4 -12 16 -27 26 -46 29 -320 311 -378 388
-50 67 -195 308 -195 324 0 19 -114 82 -146 82 -2 0 6 -24 17 -52z"/>
<path d="M5274 4525 c-1 -63 9 -75 26 -30 8 22 -6 95 -19 95 -4 0 -6 -29 -7
-65z"/>
<path d="M5895 4531 c-6 -11 9 -23 19 -14 9 9 7 23 -3 23 -6 0 -12 -4 -16 -9z"/>
<path d="M7660 4473 c0 -6 444 -424 478 -449 26 -20 34 -17 69 25 28 33 31 42
20 53 -17 16 -97 86 -252 218 -66 56 -133 114 -150 128 -25 22 -39 26 -97 27
-37 1 -68 0 -68 -2z"/>
<path d="M5257 4432 c-13 -14 -17 -37 -17 -89 0 -65 -2 -72 -30 -96 -22 -20
-30 -36 -30 -61 0 -50 18 -54 36 -9 9 21 25 58 37 82 14 31 21 68 23 118 1 40
1 73 -1 73 -1 0 -9 -8 -18 -18z"/>
<path d="M5990 4376 c-64 -95 -99 -179 -130 -311 -10 -44 -30 -115 -44 -158
-29 -88 -41 -139 -50 -212 -4 -27 -15 -77 -25 -110 -10 -33 -24 -80 -32 -105
-7 -25 -34 -100 -60 -168 -27 -68 -54 -151 -60 -185 -15 -76 -27 -102 -94
-192 -28 -38 -61 -90 -73 -115 -11 -25 -41 -70 -66 -100 -25 -30 -46 -58 -46
-61 0 -5 145 -5 173 0 4 0 7 7 7 14 0 7 18 34 40 60 47 58 128 197 165 287 24
56 85 220 170 460 20 54 42 148 69 290 2 14 11 54 19 90 8 36 17 103 20 150 3
47 11 98 17 115 6 16 13 48 16 70 11 92 15 110 29 139 18 36 19 82 2 89 -7 3
-27 -17 -47 -47z"/>
<path d="M1679 4258 c0 -7 -2 -22 -4 -33 -7 -37 24 -80 82 -115 68 -41 124
-96 158 -153 24 -42 112 -124 121 -114 3 3 7 19 9 37 4 27 0 33 -23 41 -16 5
-36 25 -47 46 -16 29 -279 303 -292 303 -2 0 -3 -6 -4 -12z"/>
<path d="M5630 4094 c0 -11 28 -64 63 -116 l63 -96 26 41 27 41 -47 31 c-26
17 -66 51 -89 75 -36 38 -43 42 -43 24z"/>
<path d="M8261 4028 c-23 -11 -41 -25 -42 -32 -3 -32 4 -63 19 -78 20 -21 243
-119 254 -112 11 7 10 72 -2 115 -10 36 -45 78 -87 106 -35 23 -97 24 -142 1z"/>
<path d="M8825 4010 c-12 -4 -54 -42 -95 -84 -80 -82 -142 -126 -202 -146 -40
-12 -43 -12 -252 -11 -96 1 -142 -2 -147 -10 -12 -21 -32 -128 -26 -144 10
-24 53 -36 111 -30 78 6 373 81 420 106 23 12 62 33 89 46 31 15 57 39 74 66
14 23 37 58 50 78 19 29 24 48 22 88 -3 52 -7 56 -44 41z"/>
<path d="M2069 3836 c-15 -20 -15 -25 -1 -51 15 -30 100 -114 114 -115 5 0 22
-19 38 -42 28 -40 149 -172 280 -306 30 -32 91 -88 134 -127 43 -38 84 -74 90
-80 6 -5 43 -37 81 -70 39 -33 99 -88 135 -123 35 -34 98 -86 140 -114 41 -29
127 -91 190 -138 63 -47 154 -114 202 -148 76 -53 88 -59 93 -43 18 57 -19
107 -115 156 -36 18 -135 86 -220 151 -193 146 -199 152 -341 289 -64 62 -141
130 -173 150 -31 21 -56 41 -56 45 0 3 -20 28 -45 53 -25 26 -45 51 -45 56 0
5 -24 23 -53 39 -30 17 -74 54 -98 83 -124 147 -306 346 -323 352 -6 3 -18 -5
-27 -17z"/>
<path d="M7042 3803 c1 -53 2 -55 41 -75 29 -14 52 -19 80 -15 50 7 65 21 25
24 -36 3 -61 23 -90 74 -11 21 -29 39 -39 42 -15 4 -17 -2 -17 -50z"/>
<path d="M5978 3770 l-26 -81 21 -19 c27 -26 42 -25 61 2 22 31 19 85 -7 136
l-23 42 -26 -80z"/>
<path d="M7903 3718 c-26 -26 -45 -49 -42 -50 12 -8 189 -94 189 -93 0 1 -5
16 -11 34 -15 42 -5 74 35 119 l34 38 -79 0 -79 -1 -47 -47z"/>
<path d="M7293 3682 l-33 -17 48 -85 c27 -47 82 -137 124 -200 41 -63 94 -155
119 -203 24 -49 55 -97 69 -107 24 -17 110 -50 131 -50 28 0 -25 106 -116 230
-35 47 -81 114 -102 150 -74 121 -194 300 -201 300 -4 -1 -22 -9 -39 -18z"/>
<path d="M6258 3553 c-15 -4 -18 -15 -18 -59 0 -53 2 -58 54 -112 29 -31 59
-67 65 -80 7 -13 23 -27 37 -32 14 -6 24 -18 24 -29 0 -36 139 -152 238 -198
58 -27 71 -24 74 19 3 40 -18 70 -74 103 -67 40 -142 113 -210 205 -30 42 -74
88 -97 104 -22 16 -41 31 -41 35 -1 17 -37 47 -52 44z"/>
<path d="M10 3105 c0 -2 9 -24 21 -47 16 -33 38 -54 91 -88 39 -25 101 -71
138 -102 69 -58 150 -106 150 -89 0 14 -168 168 -235 216 -33 24 -79 53 -102
65 -24 12 -43 28 -43 36 0 8 -4 14 -10 14 -5 0 -10 -2 -10 -5z"/>
<path d="M6952 3044 l3 -49 80 -17 c44 -9 109 -17 145 -18 36 0 82 -7 102 -14
43 -16 45 -13 38 57 l-5 51 -130 2 c-118 1 -166 8 -218 29 -16 7 -18 3 -15
-41z"/>
<path d="M7422 3079 c-24 -9 -76 -108 -64 -121 18 -19 120 -35 172 -28 58 8
130 34 130 47 0 11 -71 73 -105 90 -36 19 -101 25 -133 12z"/>
<path d="M6035 2864 c-11 -9 -46 -29 -78 -45 -71 -36 -97 -62 -97 -94 0 -36
31 -95 50 -95 44 0 200 140 200 179 -1 13 -43 72 -52 71 -2 0 -12 -8 -23 -16z"/>
<path d="M460 2755 c-20 -21 -21 -27 -9 -42 25 -33 46 -51 132 -112 47 -33
100 -78 119 -99 18 -22 65 -59 103 -83 39 -24 117 -78 175 -119 126 -91 191
-131 328 -198 56 -28 135 -72 175 -98 140 -91 387 -200 485 -213 58 -8 63 -2
38 47 -17 33 -39 45 -129 72 -105 32 -476 229 -592 315 -16 12 -93 59 -170
105 -236 141 -402 260 -560 404 -27 25 -55 45 -61 46 -6 0 -21 -11 -34 -25z"/>
<path d="M5696 2652 c-45 -24 -59 -25 -210 -27 -148 -2 -364 -12 -425 -21 -33
-4 -347 -18 -386 -17 -227 6 -299 3 -436 -21 -79 -14 -171 -28 -204 -31 -33
-3 -95 -13 -138 -22 -73 -15 -81 -15 -113 0 -60 29 -97 23 -148 -26 -26 -24
-46 -47 -46 -52 0 -5 12 -22 27 -37 30 -32 75 -37 108 -12 15 11 45 14 127 13
72 -1 123 4 155 14 141 45 210 50 663 52 306 1 456 6 505 15 39 7 153 13 255
14 l185 2 95 43 c52 24 103 51 114 61 18 17 18 19 -5 49 -28 38 -54 38 -123 3z"/>
<path d="M5095 2368 l-65 -63 0 -100 1 -100 21 29 c12 16 31 38 42 50 12 12
40 46 63 76 23 30 50 64 60 75 34 36 63 82 56 89 -3 3 -31 6 -60 6 -53 0 -56
-2 -118 -62z"/>
<path d="M6815 2296 c-56 -26 -75 -43 -158 -138 l-58 -66 57 -71 c31 -39 61
-71 67 -71 15 0 82 76 113 127 41 68 54 131 45 231 -1 17 -8 15 -66 -12z"/>
<path d="M4876 2176 c-52 -27 -62 -37 -74 -74 -15 -47 -10 -103 13 -122 11 -9
26 -5 70 16 62 31 105 74 105 107 0 24 -38 108 -48 106 -4 -1 -34 -15 -66 -33z"/>
<path d="M4641 2029 c-35 -19 -70 -29 -97 -29 -24 0 -54 -5 -67 -11 -17 -8
-31 -8 -43 -1 -13 7 -24 6 -38 -3 -41 -26 -287 -77 -390 -81 -56 -3 -123 -11
-151 -19 -27 -7 -90 -16 -140 -19 -49 -3 -112 -10 -140 -16 -27 -5 -95 -9
-150 -8 -95 2 -189 -5 -245 -18 -14 -3 -225 -7 -470 -8 -348 -2 -458 1 -505
12 -102 23 -114 23 -130 -1 -8 -12 -17 -41 -19 -65 l-6 -42 183 -1 c250 -2
346 -7 462 -26 69 -11 150 -9 213 4 89 19 179 19 222 0 32 -14 36 -14 63 5 31
22 26 22 294 13 61 -2 126 0 145 6 18 5 58 12 88 14 81 6 129 15 167 31 20 9
65 14 116 14 58 -1 112 6 187 25 58 15 157 35 221 46 66 10 150 32 193 49 42
17 99 34 126 37 28 3 50 8 50 10 0 10 -72 113 -78 112 -4 -1 -31 -15 -61 -30z"/>
<path d="M4996 2051 c-3 -5 1 -11 9 -15 9 -3 15 0 15 9 0 16 -16 20 -24 6z"/>
<path d="M6548 2002 c-28 -3 -68 -43 -68 -68 0 -13 -184 -200 -313 -319 -105
-96 -497 -377 -562 -403 -16 -6 -50 -14 -74 -17 -24 -4 -94 -24 -155 -45 -180
-63 -262 -79 -416 -78 -153 0 -228 9 -309 39 -91 34 -123 35 -157 6 -16 -14
-26 -28 -23 -31 3 -3 63 -22 133 -41 l128 -35 263 0 264 0 138 35 c76 19 146
40 155 45 10 6 22 10 27 10 13 0 166 89 268 156 116 75 386 290 458 363 33 34
74 69 90 78 72 37 265 199 265 221 0 5 -7 25 -15 45 -15 36 -38 46 -97 39z"/>
<path d="M4167 1224 c-1 -1 -28 -4 -60 -7 -98 -8 -91 -16 38 -42 57 -11 94
-25 129 -49 54 -38 61 -37 172 9 l59 24 -61 1 c-48 0 -74 7 -120 30 -36 19
-78 31 -107 33 -26 2 -49 2 -50 1z"/>
</g>
</svg>
