<?xml version="1.0" encoding="utf-8"?>
<!-- Generator: Adobe Illustrator 19.2.1, SVG Export Plug-In . SVG Version: 6.00 Build 0)  -->
<svg version="1.2" baseProfile="tiny" id="aeski-logo-2" xmlns="http://www.w3.org/2000/svg" xmlns:xlink="http://www.w3.org/1999/xlink"
	 x="0px" y="0px" viewBox="0 0 108.7 26.5" xml:space="preserve" width="100px">
<g>
	<path class="lettering" d="M22.7,4c-2.4-2.5-5.8-4-9.5-4C5.9,0,0,5.9,0,13.2c0,7.3,5.9,13.2,13.2,13.2c3.7,0,7.1-1.5,9.5-4v3.8h3.8
		v-26h-3.8V4z M13.2,22.7c-5.2,0-9.5-4.2-9.5-9.5S8,3.8,13.2,3.8s9.5,4.2,9.5,9.5S18.5,22.7,13.2,22.7z"/>
	<path class="lettering" d="M80.1,11.4h-2.4H59.2C60,7,63.9,3.8,68.4,3.8c2.5,0,4.8,1,6.5,2.6h4.8C77.4,2.6,73.2,0,68.4,0
		c-7.3,0-13.2,5.9-13.2,13.2c0,0.6,0,1.3,0.1,1.9h0.3h3.5h18.6c-0.9,4.3-4.7,7.6-9.3,7.6c-2.5,0-4.8-1-6.5-2.6h-4.8
		c2.3,3.8,6.5,6.4,11.3,6.4c7.3,0,13.2-5.9,13.2-13.2c0-0.6,0-1.3-0.1-1.9H80.1z"/>
	<path fill="#000000" d="M99.8,14.8c-1.5-1.5-3.2-2.5-5-3.1c0.2-0.2,0.4-0.3,0.5-0.5c0,0,0,0,0,0c2.3-2.4,3.7-5.7,3.7-9V0.3h-3.8
		v1.9c0,2.3-0.9,4.7-2.6,6.4c-1.8,1.7-3.7,2.5-6,2.6h-0.1h-0.1V0.2h-3.8v26h3.8V14.9h0.1h0.1h2.4h1.9c2.3,0,4.3,0.8,6.1,2.6
		c1.7,1.8,2.7,4.3,2.7,6.8v1.9h3.8v-1.9C103.7,20.9,102.2,17.3,99.8,14.8C99.9,14.9,99.9,14.9,99.8,14.8z"/>
	<path fill="#000000" d="M104.9,0.2v6.1c0,0,3.8,0.5,3.8-3.1c0-1.7,0-3.1,0-3.1H104.9z"/>
	<rect x="104.9" y="11.4" fill="#000000" width="3.8" height="14.9"/>
	<path fill="#000000" d="M40.8,0c-7.3,0-13.2,5.9-13.2,13.2c0,7.3,5.9,13.2,13.2,13.2c4.8,0,9-2.5,11.3-6.4h-4.8
		c-1.7,1.6-4,2.6-6.5,2.6c-4.6,0-8.4-3.3-9.3-7.6h18.6c0,0,0,0,0,0h3.8c0.1-0.6,0.1-1.2,0.1-1.9C54,5.9,48.1,0,40.8,0z M31.5,11.4
		c0.9-4.3,4.7-7.6,9.3-7.6c4.6,0,8.4,3.3,9.3,7.6H31.5z"/>
	<path fill="#000000" d="M53.5,0h-7.2c1.6,0.7,3.1,1.6,4.4,2.8L53.5,0z"/>
</g>
<circle fill="#231F20" cx="13.2" cy="13.2" r="3.8"/>
</svg>
