<svg xmlns="http://www.w3.org/2000/svg" width="256" height="256" viewBox="0 0 256 256">
	<style>
		.circle{fill:#BDD5D9}
		.logoform{fill:#000000;}
	</style>
  <g fill="none" fill-rule="evenodd">
    <path class="logoform" d="M125.499074,218 C76.6994632,218 37,177.625781 37,128.000942 C37,78.3742191 76.6994632,38 125.499074,38 C174.298685,38 214,78.3742191 214,128.000942 C214,177.625781 174.298685,218 125.499074,218 L125.499074,218 Z M213.719712,40.0965117 C191.184892,16.6189774 159.746442,2 124.999072,2 C56.6258732,2 1,58.5230647 1,128.000943 C1,197.476935 56.6258732,254 124.999072,254 C159.746442,254 191.184892,239.381023 213.719712,215.903488 L213.719712,251.752813 L249,251.752813 L249,4.25096025 L213.719712,4.25096025 L213.719712,40.0965117 Z"/>
    <path class="circle" d="M175,128 C175,155.613158 152.613158,178 125,178 C97.3868421,178 75,155.613158 75,128 C75,100.386842 97.3868421,78 125,78 C152.613158,78 175,100.386842 175,128"/>
  </g>
</svg>
